<?xml version="1.0" encoding="UTF-8" standalone="no"?>
<!-- Created with Inkscape (http://www.inkscape.org/) -->

<svg
   width="4.3648176mm"
   height="17.246019mm"
   viewBox="0 0 4.3648176 17.246019"
   version="1.1"
   id="svg194"
   inkscape:version="1.2.2 (b0a8486541, 2022-12-01)"
   sodipodi:docname="logo - plain.svg"
   xmlns:inkscape="http://www.inkscape.org/namespaces/inkscape"
   xmlns:sodipodi="http://sodipodi.sourceforge.net/DTD/sodipodi-0.dtd"
   xmlns="http://www.w3.org/2000/svg"
   xmlns:svg="http://www.w3.org/2000/svg">
  <sodipodi:namedview
     id="namedview196"
     pagecolor="#535353"
     bordercolor="#000000"
     borderopacity="0.25"
     inkscape:showpageshadow="2"
     inkscape:pageopacity="0"
     inkscape:pagecheckerboard="0"
     inkscape:deskcolor="#d1d1d1"
     inkscape:document-units="mm"
     showgrid="false"
     inkscape:zoom="4.7589063"
     inkscape:cx="14.919394"
     inkscape:cy="33.62117"
     inkscape:window-width="1128"
     inkscape:window-height="698"
     inkscape:window-x="0"
     inkscape:window-y="0"
     inkscape:window-maximized="1"
     inkscape:current-layer="layer1" />
  <defs
     id="defs191" />
  <g
     inkscape:label="Layer 1"
     inkscape:groupmode="layer"
     id="layer1"
     transform="translate(-37.722878,-169.63409)">
    <path
       id="path198"
       style="fill:#ffffff;fill-opacity:1;stroke-width:0.264583"
       d="M 40.001292 169.63409 A 2.3767521 2.3767521 0 0 0 39.111941 171.45103 A 2.1926021 2.1926021 0 0 1 38.328009 170.77562 A 2.1828125 2.1828125 0 0 0 39.550157 174.43741 L 39.540855 186.48061 A 0.40000001 0.40000001 0 0 0 39.941347 186.8811 A 0.40000001 0.40000001 0 0 0 40.34184 186.48061 L 40.351141 174.41984 A 2.1833417 2.1833417 0 0 0 40.795042 170.29038 A 2.1722292 2.1722292 0 0 1 40.001292 169.63409 z " />
    <g
       id="path3854"
       style="stroke-width:0;stroke-dasharray:none">
      <path
         style="color:#000000;fill:#ffffff;stroke-width:0;stroke-linecap:round;stroke-dasharray:none"
         d="m 39.951717,173.67759 -0.01032,12.80252"
         id="path7098" />
    </g>
  </g>
</svg>
